<svg xmlns="http://www.w3.org/2000/svg" version="1.1" xmlns:xlink="http://www.w3.org/1999/xlink" xmlns:svgjs="http://svgjs.dev/svgjs" width="1000" height="655" viewBox="0 0 1000 655"><g transform="matrix(1,0,0,1,0.26744186046528284,-0.9267553191488105)"><svg viewBox="0 0 215 141" data-background-color="#ffffff" preserveAspectRatio="xMidYMid meet" height="655" width="1000" xmlns="http://www.w3.org/2000/svg" xmlns:xlink="http://www.w3.org/1999/xlink"><g id="tight-bounds" transform="matrix(1,0,0,1,-0.05750000000003297,0.19949999999997203)"><svg viewBox="0 0 215.1147091024623 140.60052000000002" height="140.60052000000002" width="215.1147091024623"><g><svg viewBox="0 0 215.1147091024623 140.60052000000002" height="140.60052000000002" width="215.1147091024623"><g><svg viewBox="0 0 215.1147091024623 140.60052000000002" height="140.60052000000002" width="215.1147091024623"><g><path d="M0 140.601v-140.601h215.115v140.601z" fill="#77d4fc" stroke="transparent" stroke-width="0" rx="0%" data-fill-palette-color="tertiary"></path><path d="M3.283 137.317v-134.034h208.548v134.034z" fill="#ffffff" stroke="transparent" stroke-width="0" rx="0%" data-fill-palette-color="quaternary"></path><path d="M9.85 130.751v-120.901h195.415v120.901z" fill="#77d4fc" stroke="transparent" stroke-width="0" data-fill-palette-color="tertiary"></path></g><g transform="matrix(1,0,0,1,19.699740000000013,19.69974)" id="textblocktransform"><svg viewBox="0 0 175.7152291024623 101.20104000000002" height="101.20104000000002" width="175.7152291024623" id="textblock"><g><svg viewBox="0 0 175.7152291024623 101.20104000000002" height="101.20104000000002" width="175.7152291024623"><g transform="matrix(1,0,0,1,0,0)"><svg width="175.7152291024623" viewBox="3.61 -30.49 53.37 30.729999999999997" height="101.20104000000002" data-palette-color="#ffffff"><path d="M15.45 0.24Q11.67 0.24 9.01-0.94 6.35-2.12 4.98-4.37 3.61-6.62 3.61-9.74L3.61-9.74 3.61-29.52Q3.61-30.49 5.35-30.49L5.35-30.49 5.69-30.49Q7.42-30.49 7.42-29.52L7.42-29.52 7.42-9.59Q7.42-7.69 8.47-6.2 9.52-4.71 11.35-3.88 13.18-3.05 15.45-3.05L15.45-3.05Q17.75-3.05 19.58-3.89 21.41-4.74 22.45-6.23 23.49-7.71 23.49-9.59L23.49-9.59 23.49-29.52Q23.49-30.49 25.22-30.49L25.22-30.49 25.59-30.49Q27.29-30.49 27.29-29.52L27.29-29.52 27.29-9.74Q27.29-6.62 25.93-4.37 24.56-2.12 21.9-0.94 19.24 0.24 15.45 0.24L15.45 0.24ZM33.3 0.07Q32.32 0.07 31.88-0.11 31.44-0.29 31.44-0.66L31.44-0.66Q31.44-0.83 31.56-1.25L31.56-1.25 41.84-29.79Q42.09-30.49 43.58-30.49L43.58-30.49 44.85-30.49Q46.34-30.49 46.58-29.79L46.58-29.79 56.86-1.22Q56.98-0.95 56.98-0.66L56.98-0.66Q56.98 0.07 55.15 0.07L55.15 0.07 54.78 0.07Q53.27 0.07 53.02-0.61L53.02-0.61 50.49-7.74 37.74-7.74 35.25-0.61Q35.03 0.07 33.52 0.07L33.52 0.07 33.3 0.07ZM38.94-11.04L49.31-11.04 44.77-23.95Q44.58-24.49 44.46-25.17 44.33-25.85 44.24-26.49L44.24-26.49 44.14-26.49Q43.85-24.85 43.48-23.95L43.48-23.95 38.94-11.04Z" opacity="1" transform="matrix(1,0,0,1,0,0)" fill="#ffffff" class="wordmark-text-0" data-fill-palette-color="quaternary" id="text-0"></path></svg></g></svg></g></svg></g></svg></g><g></g></svg></g><defs></defs></svg><rect width="215.1147091024623" height="140.60052000000002" fill="none" stroke="none" visibility="hidden"></rect></g></svg></g></svg>