<svg xmlns="http://www.w3.org/2000/svg" width="1000" height="623" viewBox="0 0 1000 623" version="1.1"><path d="M 270.500 453.133 C 267.183 454.983, 266 457.174, 266 461.469 C 266 467.061, 268.023 469.504, 275.827 473.334 C 281.705 476.220, 282.536 476.979, 282.806 479.709 C 283.247 484.172, 280.187 486, 272.277 486 L 266 486 266 489 L 266 492 272.532 492 C 284.085 492, 289.500 488.148, 289.500 479.931 C 289.500 474.035, 288.376 472.726, 279.255 468 C 273.194 464.860, 272.500 464.192, 272.500 461.500 L 272.500 458.500 280 458 C 287.200 457.520, 287.500 457.400, 287.500 455 C 287.500 452.577, 287.269 452.493, 280 452.259 C 275.864 452.126, 271.603 452.518, 270.500 453.133 M 335.449 453.551 C 332.287 455.112, 329 459.624, 329 462.404 C 329 463.282, 328.622 464, 328.161 464 C 327.434 464, 325 468.271, 325 469.547 C 325 469.796, 325.900 470, 327 470 C 328.879 470, 329 470.667, 329 481 L 329 492 332 492 L 335 492 335 481 L 335 470 338 470 C 340.667 470, 341 469.667, 341 467 C 341 464.333, 340.667 464, 338 464 C 333.169 464, 334.812 458.639, 339.992 457.502 C 342.326 456.989, 343 456.298, 343 454.421 C 343 451.529, 340.200 451.207, 335.449 453.551 M 492.229 471.750 L 492.500 491.500 500.255 491.380 C 506.886 491.277, 508.600 490.868, 512.084 488.563 C 521.291 482.470, 522.888 466.172, 515.114 457.627 C 511.365 453.507, 507.054 452, 499.011 452 L 491.958 452 492.229 471.750 M 609 468.944 C 609 485.106, 609.104 486.004, 611.250 488.399 C 612.517 489.812, 615.138 491.196, 617.250 491.566 C 620.906 492.206, 621 492.146, 621 489.178 C 621 486.599, 620.579 486.084, 618.250 485.816 L 615.500 485.500 615.226 468.750 L 614.952 452 611.976 452 L 609 452 609 468.944 M 499 472.132 L 499 486.263 503.039 485.722 C 508.104 485.042, 509.826 483.625, 512.259 478.137 C 514.984 471.992, 513.967 465.767, 509.510 461.310 C 506.989 458.789, 505.342 458, 502.600 458 L 499 458 499 472.132 M 347.034 464.452 C 341.753 469.812, 341.660 470, 344.284 470 C 346.997 470, 347 470.009, 347 477.484 C 347 484.262, 347.260 485.249, 349.750 487.941 C 351.430 489.756, 353.959 491.168, 356.250 491.568 C 359.920 492.209, 360 492.156, 360 489.111 C 360 486.531, 359.607 486, 357.700 486 C 353.972 486, 353 484.098, 353 476.800 L 353 470 356.500 470 C 359.722 470, 360 469.762, 360 467 C 360 464.249, 359.715 464, 356.566 464 C 353.636 464, 353.086 463.627, 352.816 461.452 C 352.513 459.005, 352.282 459.125, 347.034 464.452 M 300.299 465.960 C 291.985 471.028, 291.922 484.934, 300.190 489.974 C 304.253 492.452, 311.139 492.622, 315.001 490.340 C 318.569 488.233, 322 482.183, 322 478 C 322 473.817, 318.569 467.767, 315.001 465.660 C 311.188 463.407, 304.253 463.548, 300.299 465.960 M 364.184 472.291 C 364.660 481.354, 367.572 489.166, 371.199 491.107 C 372.853 491.992, 373.708 491.696, 376.089 489.414 C 377.676 487.894, 379.256 485.154, 379.599 483.325 C 379.942 481.496, 380.572 480, 381 480 C 381.428 480, 382.058 481.496, 382.401 483.325 C 382.744 485.154, 384.324 487.894, 385.911 489.414 C 388.292 491.696, 389.147 491.992, 390.801 491.107 C 394.428 489.166, 397.340 481.354, 397.816 472.291 L 398.251 464 395.687 464 C 392.930 464, 393.235 463.038, 391.459 477.365 C 391.161 479.766, 390.335 482.527, 389.622 483.502 C 388.446 485.111, 388.186 484.917, 386.794 481.387 C 385.951 479.249, 384.950 475.363, 384.570 472.750 C 383.928 468.344, 383.669 468, 381 468 C 378.330 468, 378.073 468.342, 377.438 472.750 C 376.626 478.384, 374.485 484, 373.149 484 C 371.780 484, 370 478.335, 370 473.976 C 370 466.696, 368.986 464, 366.250 464 L 363.749 464 364.184 472.291 M 405 466.891 L 405 470 411.465 470 C 419.226 470, 420 470.905, 420 479.984 L 420 486.100 414.250 485.800 C 409.158 485.534, 408.463 485.243, 408.181 483.252 C 407.768 480.349, 411.793 478.591, 415.565 480.025 C 419.051 481.350, 419 481.379, 419 478.088 C 419 475.471, 418.596 475.107, 415.009 474.501 C 409.388 473.552, 403.856 476.351, 402.616 480.771 C 400.534 488.193, 405.938 492, 418.556 492 L 426.177 492 425.838 481.020 C 425.517 470.583, 425.364 469.905, 422.747 467.289 C 420.330 464.875, 419.077 464.492, 412.497 464.160 L 405 463.781 405 466.891 M 434.795 465.549 C 431.276 467.459, 430.013 472.127, 430.006 483.250 L 430 492 433 492 L 436 492 436 482.122 C 436 470.890, 436.340 470.294, 443.020 469.819 C 447.071 469.531, 447.530 469.237, 447.816 466.750 C 448.127 464.051, 448.034 464.001, 442.816 464.040 C 439.892 464.062, 436.283 464.741, 434.795 465.549 M 455.206 466.480 C 451.161 469.884, 449.651 474.021, 450.236 480.104 C 450.916 487.177, 454.823 491.084, 461.896 491.764 C 466.467 492.203, 473 490.699, 473 489.207 C 473 488.905, 472.268 487.849, 471.374 486.861 C 470.098 485.451, 469.322 485.292, 467.769 486.124 C 464.962 487.626, 459.333 486.314, 457.529 483.738 C 453.562 478.074, 457.246 469, 463.514 469 C 467.415 469, 468.432 470.141, 467.575 473.557 C 467.053 475.636, 466.369 476, 462.981 476 C 459.193 476, 459 476.151, 459 479.111 C 459 482.156, 459.081 482.209, 462.750 481.571 C 468.759 480.526, 471.661 479.039, 472.870 476.385 C 474.652 472.475, 474.204 469.113, 471.545 466.455 C 468.011 462.920, 459.421 462.933, 455.206 466.480 M 531.763 465.565 C 528.647 467.256, 526.480 470.926, 525.494 476.182 C 524.564 481.136, 527.774 488.314, 531.863 490.429 C 536.593 492.875, 545.532 492.320, 548.911 489.371 C 549.136 489.174, 548.563 488.175, 547.637 487.151 C 546.192 485.555, 545.402 485.437, 542.076 486.325 C 538.880 487.178, 537.734 487.056, 535.555 485.628 C 531.834 483.190, 530.579 479.398, 531.958 474.766 C 533.151 470.764, 535.400 469, 539.312 469 C 545.705 469, 544.720 475.654, 538.247 476.190 C 535 476.459, 534.500 476.833, 534.500 479 C 534.500 481.337, 534.793 481.482, 539 481.225 C 544.392 480.896, 548.103 478.424, 549.194 474.432 C 550.141 470.971, 548.553 466.367, 545.929 464.962 C 543.236 463.521, 534.874 463.877, 531.763 465.565 M 553 466.039 C 553 472.380, 557.582 484.618, 561.971 490 L 564.009 492.500 567.369 488.913 C 570.806 485.243, 574.357 476.310, 575.613 468.170 C 576.273 463.896, 576.246 463.844, 573.520 464.170 C 570.996 464.472, 570.604 465.116, 568.937 471.701 C 567.935 475.662, 566.499 480.077, 565.747 481.514 L 564.378 484.126 563.088 481.313 C 562.378 479.766, 560.997 475.350, 560.019 471.500 C 558.429 465.242, 557.963 464.466, 555.620 464.184 C 553.500 463.928, 553 464.282, 553 466.039 M 585.756 465.755 C 582.054 468.050, 580 472.746, 580 478.916 C 580 483.310, 580.466 484.537, 583.312 487.643 C 586.097 490.683, 587.447 491.337, 591.800 491.755 C 596.700 492.226, 603 490.695, 603 489.034 C 603 487.274, 599.408 485.130, 597.977 486.035 C 592.847 489.279, 586 484.789, 586 478.180 C 586 472.421, 589.163 468.804, 593.856 469.196 C 600.301 469.736, 598.939 476, 592.378 476 C 589.270 476, 589 476.247, 589 479.088 C 589 482.164, 589.016 482.173, 593.250 481.472 C 598.515 480.600, 600.464 479.603, 602.449 476.770 C 604.743 473.494, 604.374 469.283, 601.545 466.455 C 599.548 464.457, 598.106 464.005, 593.795 464.027 C 590.593 464.043, 587.415 464.726, 585.756 465.755 M 629.420 465.886 C 623.300 469.617, 621.337 478.270, 625.094 484.954 C 627.774 489.721, 631.678 492.001, 637.154 491.996 C 647.648 491.987, 653.845 481.744, 649.560 471.490 C 646.692 464.625, 636.251 461.720, 629.420 465.886 M 661.549 467.091 C 656.802 471.259, 655.888 475.395, 656.221 491.216 L 656.500 504.500 659.250 504.816 L 662 505.133 662 490.613 C 662 475.052, 662.714 471.907, 666.657 470.110 C 670.338 468.433, 672.605 468.756, 675.672 471.394 C 681.855 476.713, 677.357 487.997, 669.575 486.688 C 667.884 486.403, 665.712 485.859, 664.750 485.478 C 663.358 484.927, 663 485.312, 663 487.358 C 663 490.488, 665.507 492.001, 670.684 491.996 C 684.746 491.982, 689.494 471.961, 676.971 465.485 C 675.391 464.668, 672.068 464, 669.584 464 C 665.964 464, 664.372 464.613, 661.549 467.091 M 694.615 466.088 C 686.488 472.481, 687.320 486.011, 696.119 490.562 C 699.969 492.553, 709.308 492.121, 711.582 489.847 C 712.889 488.540, 712.834 488.160, 711.114 486.603 C 709.517 485.158, 708.772 485.051, 706.978 486.012 C 703.977 487.618, 698.396 486.403, 696.529 483.738 C 692.346 477.766, 696.616 468.546, 703.267 469.188 C 706.123 469.464, 706.500 469.850, 706.500 472.500 C 706.500 475.315, 706.237 475.519, 702.250 475.807 C 698.253 476.097, 698 476.295, 698 479.145 C 698 482.154, 698.030 482.171, 702.250 481.472 C 710.103 480.171, 712.918 477.637, 712.968 471.823 C 712.992 469.019, 712.374 467.653, 710.365 466.073 C 706.697 463.187, 698.293 463.195, 694.615 466.088 M 721.856 465.516 C 718.200 467.503, 717 471.736, 717 482.649 L 717 492 720 492 L 723 492 723 482.582 C 723 470.231, 723.112 470, 729.107 470 C 733.877 470, 734 469.925, 734 467 C 734 464.082, 733.870 464.001, 729.250 464.040 C 726.638 464.062, 723.310 464.726, 721.856 465.516 M 302.455 471.455 C 298.986 474.923, 299.042 481.133, 302.573 484.664 C 304.718 486.808, 305.760 487.140, 308.823 486.649 C 313.531 485.896, 316 482.866, 316 477.844 C 316 472.860, 312.508 469, 308 469 C 306.052 469, 304.002 469.907, 302.455 471.455 M 631.455 471.455 C 629.680 473.229, 629 475, 629 477.844 C 629 482.866, 631.469 485.896, 636.177 486.649 C 639.240 487.140, 640.282 486.808, 642.427 484.664 C 647.904 479.187, 644.375 469, 637 469 C 635.052 469, 633.002 469.907, 631.455 471.455" stroke="none" fill="#4c93f3" fill-rule="evenodd"/><path d="M 484 30.606 C 465.175 32.298, 447.973 35.552, 431.448 40.546 C 418.873 44.347, 396 53.735, 396 55.095 C 396 55.593, 401.063 55.996, 407.250 55.991 C 417.751 55.983, 419.233 55.724, 429.500 52.101 C 475.415 35.899, 524.516 35.835, 570 51.917 C 580.828 55.745, 582.158 55.983, 592.750 55.991 C 598.938 55.996, 604 55.593, 604 55.095 C 604 53.934, 582.859 44.993, 571.905 41.521 C 560.345 37.857, 545.503 34.438, 533 32.560 C 522.662 31.006, 492.795 29.815, 484 30.606 M 277.500 118.664 C 271.829 119.390, 269.945 120.055, 267.975 122.025 C 266.036 123.964, 266 125.741, 266 219.042 C 266 301.766, 266.205 315.083, 267.581 321.792 C 273.385 350.092, 291.596 370.790, 319.611 380.927 C 334.446 386.295, 348.111 388.362, 369 388.397 C 379.700 388.415, 390.841 387.876, 395.423 387.119 C 437.509 380.167, 461.996 360.308, 471.262 325.614 C 473.402 317.601, 473.434 316.298, 473.748 221.344 L 474.066 125.189 471.783 122.568 C 467.257 117.373, 447.744 117.073, 442.376 122.116 L 440 124.349 439.985 215.924 C 439.969 316.771, 440.102 314.399, 433.774 326.272 C 422.859 346.751, 398.837 358.968, 369.434 358.992 C 354.084 359.005, 338.553 355.095, 327.373 348.402 C 319.478 343.676, 309.764 333.910, 306.077 326.993 C 299.815 315.244, 300 318.578, 300 217.724 C 300 156.636, 299.655 125.224, 298.970 123.945 C 298.404 122.886, 296.717 121.401, 295.220 120.644 C 292.277 119.154, 282.342 118.044, 277.500 118.664 M 611.429 118.926 C 603.978 120.119, 602.391 121.341, 599.984 127.746 C 585.679 165.816, 510 377.941, 510 379.970 C 510 385.145, 512.952 386.463, 525.352 386.825 C 542.583 387.328, 540.929 389.381, 554.416 350.757 L 565.500 319.013 621.185 319.007 L 676.871 319 678.042 322.250 C 678.686 324.038, 683.777 338.308, 689.356 353.962 C 701.839 388.987, 700.404 387.348, 718.145 386.836 C 731.388 386.454, 734.047 385.235, 733.943 379.595 C 733.911 377.893, 713.306 319.350, 688.154 249.500 L 642.423 122.500 638.846 120.732 C 634.679 118.672, 619.333 117.662, 611.429 118.926 M 620.126 162.171 C 619.425 165.564, 609.435 195.111, 597.926 227.830 C 586.417 260.549, 577 287.698, 577 288.160 C 577 288.622, 597.025 289, 621.500 289 C 645.975 289, 666 288.855, 666 288.677 C 666 288.500, 656.772 262.130, 645.493 230.077 C 632.930 194.376, 624.547 169.030, 623.852 164.650 C 623.228 160.718, 622.421 157.163, 622.059 156.750 C 621.697 156.338, 620.827 158.777, 620.126 162.171 M 396 567.905 C 396 569.265, 418.873 578.653, 431.448 582.454 C 455.244 589.646, 474.155 592.386, 500 592.386 C 525.845 592.386, 544.756 589.646, 568.552 582.454 C 581.127 578.653, 604 569.265, 604 567.905 C 604 567.407, 598.938 567.004, 592.750 567.009 C 582.158 567.017, 580.828 567.255, 570 571.083 C 524.516 587.165, 475.415 587.101, 429.500 570.899 C 419.233 567.276, 417.751 567.017, 407.250 567.009 C 401.063 567.004, 396 567.407, 396 567.905" stroke="none" fill="#74d4fc" fill-rule="evenodd"/></svg>