<svg xmlns="http://www.w3.org/2000/svg" width="1000" height="623" viewBox="0 0 1000 623" version="1.1"><path d="" stroke="none" fill="#7cd4fc" fill-rule="evenodd"/><path d="M 476 3.686 C 449.525 5.665, 413.579 13.884, 388.684 23.649 C 370.004 30.977, 337 47.913, 337 50.171 C 337 50.627, 343.823 51, 352.162 51 L 367.323 51 378.912 45.399 C 406.705 31.964, 434.773 23.546, 465.500 19.428 C 481.187 17.326, 515.653 17.034, 530.500 18.878 C 562.563 22.858, 592.293 31.505, 620.763 45.131 L 633.026 51 648.013 51 C 656.256 51, 662.999 50.663, 662.998 50.250 C 662.994 48.546, 637.875 34.858, 623 28.455 C 592.652 15.391, 559.723 7.020, 527 4.050 C 516.448 3.093, 486.769 2.881, 476 3.686 M 198.003 136.190 C 195.530 137.460, 192.937 139.625, 192.241 141 C 191.235 142.988, 191.046 168.812, 191.321 267 C 191.627 376.349, 191.854 391.420, 193.298 398.532 C 203.218 447.367, 235.483 476.418, 291 486.501 C 303.644 488.797, 339.567 489.680, 353.916 488.047 C 395.765 483.285, 426.315 468.108, 445.463 442.568 C 453.149 432.317, 460.408 414.889, 463.638 398.931 C 465.180 391.317, 465.381 378.531, 465.716 266.963 L 466.087 143.425 463.794 140.044 C 460.702 135.487, 456.407 134.166, 444.375 134.076 C 431.705 133.981, 428.993 134.525, 424.832 137.999 L 421.500 140.780 421 264.640 L 420.500 388.500 417.676 396.500 C 413.548 408.197, 409.555 414.513, 400.538 423.609 C 383 441.303, 359.216 450.225, 329.500 450.257 C 313.578 450.275, 303.447 448.790, 290.893 444.597 C 267.458 436.772, 248.630 420.316, 240.986 400.980 C 235.968 388.287, 236 389.179, 236 261.959 C 236 178.623, 235.676 142.382, 234.915 140.712 C 232.718 135.892, 228.590 134.541, 215 134.196 C 203.555 133.906, 202.121 134.074, 198.003 136.190 M 640.603 135.477 C 638.460 136.240, 636.063 137.509, 635.276 138.295 C 634.490 139.082, 629.898 150.700, 625.074 164.113 C 620.249 177.526, 615.076 191.875, 613.579 196 C 612.082 200.125, 607.541 212.725, 603.489 224 C 599.436 235.275, 591.329 257.775, 585.475 274 C 579.620 290.225, 572.893 308.900, 570.526 315.500 C 546.501 382.504, 537.592 407.264, 535.982 411.500 C 527.700 433.298, 513.797 473.276, 513.333 476.630 C 512.265 484.344, 517.798 486.989, 535 486.989 C 547.046 486.989, 551.743 485.967, 554.837 482.673 C 557.319 480.032, 559.827 473.236, 583.047 406.244 L 586.255 396.987 659.714 397.244 L 733.173 397.500 743.125 425.500 C 748.598 440.900, 755.175 459.495, 757.740 466.822 C 760.306 474.149, 763.383 481.201, 764.580 482.491 C 765.776 483.782, 768.497 485.322, 770.627 485.914 C 775.721 487.328, 794.911 487.303, 800.583 485.875 C 804.989 484.765, 809 481.179, 809 478.349 C 809 477.589, 807.017 471.463, 804.594 464.734 C 802.170 458.005, 791.850 429.325, 781.661 401 C 771.471 372.675, 762.214 347.025, 761.089 344 C 759.964 340.975, 753.806 323.875, 747.406 306 C 741.006 288.125, 733.096 266.075, 729.828 257 C 726.561 247.925, 720.346 230.600, 716.018 218.500 C 696.564 164.112, 687.859 140.535, 686.724 139.163 C 686.051 138.349, 683.700 136.864, 681.500 135.863 C 678.141 134.336, 674.854 134.047, 661 134.066 C 649.508 134.081, 643.317 134.509, 640.603 135.477 M 659.461 184.750 C 657.822 194.509, 649.086 221.195, 633.519 264 C 632.218 267.575, 626.196 284.675, 620.136 302 C 614.076 319.325, 607.291 338.660, 605.059 344.966 C 602.827 351.273, 601 356.785, 601 357.216 C 601 357.647, 627.598 358, 660.107 358 C 715.996 358, 719.176 357.905, 718.523 356.250 C 718.143 355.288, 713.552 342.350, 708.321 327.500 C 663.249 199.559, 664.383 202.967, 661.995 188.250 C 661.349 184.262, 660.655 181, 660.455 181 C 660.255 181, 659.807 182.688, 659.461 184.750 M 337 572.808 C 337 573.253, 341.387 576.135, 346.750 579.212 C 380.583 598.628, 416.523 610.986, 457 617.125 C 470.479 619.169, 476.085 619.471, 500 619.442 C 520.853 619.417, 530.400 618.984, 539.500 617.654 C 575.761 612.350, 607.705 602.649, 637 588.045 C 647.194 582.964, 663 573.701, 663 572.808 C 663 572.364, 656.194 572, 647.876 572 L 632.753 572 620.592 577.877 C 592.685 591.365, 562.600 600.119, 530.500 604.090 C 517.558 605.691, 482.322 605.708, 469.500 604.120 C 436.665 600.052, 402.113 589.689, 375.158 575.824 L 367.724 572 352.362 572 C 343.913 572, 337 572.364, 337 572.808" stroke="none" fill="#74d4fc" fill-rule="evenodd"/></svg>